<?xml version="1.0" encoding="utf-8"?>
<!-- Generator: Adobe Illustrator 26.1.0, SVG Export Plug-In . SVG Version: 6.00 Build 0)  -->
<svg version="1.1" id="Capa_1" xmlns="http://www.w3.org/2000/svg" xmlns:xlink="http://www.w3.org/1999/xlink" x="0px" y="0px"
	 viewBox="0 0 840.6 693.5" style="enable-background:new 0 0 840.6 693.5;" xml:space="preserve">
<style type="text/css">
	.st0{fill:#F4F4F4;}
</style>
<g>
	<path class="st0" d="M644.8,353.5c-0.3,0.1-0.5,0.1-0.5,0.1c-2.7,3.4-2.7,3.4-6.2,0.4c-3.3-2.8-6.6-5.6-9.9-8.4
		c-2.3-1.9-2.7-1.9-4.6,0.4c-2.7,3.1-4.3,6.8-5.3,10.6c-4.3,15.4-4.3,30.6,3,45.1c10,19.8,26.4,30.8,48.5,33.1c28.8,3,57-18,62-48.5
		c4.1-24.7-8.2-50.1-30.2-62.6c-4.3-2.5-8.8-4.5-13.6-6c-1.4-0.4-1.9-1.1-1.8-2.6c0.7-7.2,1.4-14.5,2-21.7c0.2-1.8,1.6-1.8,2.7-2
		c7.2-1.2,14.5-2.4,21.8-3.5c12.9-1.9,25.8-3.7,38.7-5.6c3.5-0.5,6.4,0.2,8.9,2.9c20.4,20.7,33.5,45.2,37.4,74.1
		c5,37.2-5,70.3-28.9,99.2c-15.7,19-35.2,32.4-58.8,39.8c-9.4,2.9-19.1,4.7-29,5.1c-35.6,1.5-66.3-10.1-92.2-34.4
		c-22.2-20.9-35.1-46.7-39.5-76.8c-0.5-3.6-0.9-7.3-1.3-10.9c-0.1-0.4,0.1-1.1-0.4-1.3c-0.6-0.2-1,0.3-1.4,0.8
		c-0.9,1.3-1.8,2.7-2.6,4c-11.2,17.5-22.3,35.1-33.8,52.4c-2.1,3.2-4.8,4.2-8.5,4.2c-70.4-0.1-140.8,0-211.2-0.1
		c-5.7,0-9.2,1.9-12.5,6.5c-17.1,24.4-39.7,41.6-68.3,50.5c-12.8,4-26.1,5.9-39.5,5.3c-37.7-1.8-68.3-17.9-92-47.2
		c-15.4-19.1-24.6-41-26.9-65.4c-3.7-40,8.5-74.7,37.2-103c17.4-17.2,38.3-28.5,62.3-33.5c28.5-5.9,55.8-1.7,81.8,11.3
		c12.1,6,23,13.8,32.7,23.3c3.5,3.4,5,3.7,9.3,1.5c4.5-2.3,9.2-4,13.9-5.9c0.8-0.3,1.6-0.7,2.8-1.2c-4.5-3.7-8.7-7.2-13-10.6
		c-26.1-20.2-52.1-40.4-78.4-60.2c-11.5-8.6-24.2-15.3-36.9-21.8c-24.6-12.6-49.5-24.8-74.3-37.1c-10.7-5.3-16.9-13.6-18.3-25.5
		c-0.9-7.5,3.3-13.1,10.8-13.6c11.5-0.8,23-0.4,34.5-0.2c10.2,0.2,20.5,0.3,30.7-0.1c7.4-0.3,14.9-0.1,22.3-0.1
		c3.2,0,6.4-0.2,9.6,0.3c4.1,0.7,7.6,2.6,10.2,5.8c7.5,9.3,15.3,18.3,22.5,27.8c9.8,13,23.3,19.7,38.9,22.5
		c25.5,4.5,50.9,9.7,76.2,14.8c2.6,0.5,5.2,0.9,7.8,1.5c2.2,0.5,3.2-0.2,3.8-2.4c4.1-15.4,11.6-28.8,23.3-39.6
		c16.4-15.2,35.7-24.8,57.9-28.5c7.9-1.3,15.8-0.9,23.7-0.9c18.1,0,36.2-0.2,54.2,0.1c21.9,0.3,41.4,7.1,57.7,22.3
		c2,1.9,2.1,1.8,3.3-0.6c1-2.2,2.2-4.3,3.7-6.1c9.1-10.8,25.5-8.9,32.2,3.6c3,5.6,5.1,11.5,7.3,17.5c0.3,0.7,0.5,1.5,0.9,2.2
		c0.9,1.8,2.4,2.4,4.2,1.7c3.1-1.3,6.3-2.2,9.5-3.3c4-1.4,6.5-4.3,7.1-8.6c0.7-5-1-9.2-5.1-12.2c-3.6-2.7-7.7-4.5-11.9-6
		c-21.8-8-43.5-16-65.3-24c-5.9-2.2-11.5-4.8-15.6-9.9c-5.7-7.2-7.6-19.9,1.7-28.7c16.4-15.5,33.1-30.6,49.9-45.7
		c4-3.6,4.1-3.6,8.3-0.2C605,34.5,625,52,644.8,69.9c12.9,11.7,25.6,23.7,37.6,36.4c14.1,14.9,28,29.9,38.7,47.5
		c6.5,10.7,12.3,21.8,15,34.1c2.3,10.2,1.3,20.4-1.9,30.3c-3.4,10.2-11,15.8-21.1,18.3c-12.4,2.9-24.7,5.8-37.1,8.7
		c-4.2,1-7.9,2.9-11.6,5.7c15.6-0.5,30.6,1.2,45.3,5.1c11.9,3.1,23.2,7.6,34.3,13c0.7,0.3,1.9,0.5,1.6,1.4c-0.2,0.8-1.4,0.6-2.1,0.7
		c-13.8,1.7-27.6,3.7-41.1,6.7c-5.8,1.3-11.3,3.3-16.4,6.5c-3.4,2.1-5.3,5.1-6,9c-1.3,7.1-2.2,14.2-3.2,21.3
		c-0.4,3.1-0.3,6.2,0.9,9.2c4.1,10.3,8.2,20.7,12.3,31c0.6,1.6,1.4,3.1,2.7,4.2c10.5,8.7,11.3,28.6-2.1,38.8
		c-7.7,5.8-16.1,8.4-25.4,4.4c-9.4-4.1-14.9-11.5-16.7-21.6c-0.8-4.3-0.8-8.6,0.6-12.8c0.9-2.6,0.1-5.1-0.9-7.5
		C647,358,645.9,355.7,644.8,353.5z M519,360.8c0.8-0.7,1.4-1.2,1.9-1.7c3.9-3.7,7.9-7.5,11.8-11.3c23.3-22.2,46.7-44.5,70-66.7
		c14.9-14.2,29.8-28.5,44.7-42.8c6.3-6,13.6-10.2,22.2-11.6c12.8-2.1,25.4-5.1,38.1-7.5c3.7-0.7,6.8-2.2,8.3-5.8
		c4-9.7,4.9-19.5,0.4-29.3c-2.5-5.4-5.1-10.8-8.1-16.1c-10-17.8-22.6-33.3-39.6-45c-9.9-6.8-20.8-11.6-31.5-16.8
		c-22.2-10.7-44.8-20.4-67.2-30.7c-4.7-2.2-9.4-4.4-14.2-6.5c-5.1-2.2-8.7-1.4-12.6,2.6c-0.7,0.7-1.3,1.4-2,2.1
		c-3.5,4-3,6.6,1.9,8.6c4,1.7,8,3.2,12.1,4.7c21.8,8.3,43.8,16,65.5,24.7c7,2.8,12.7,7.2,16.9,13.6c8.5,13.1,8.4,36.1-13.8,44.3
		c-3.5,1.3-6.9,2.5-10.4,3.7c-42.8,14.7-85.6,29.5-128.3,44.2c-30.8,10.6-61.5,21.2-92,32.6c-7,2.6-14,5-21.5,5.5
		c-5,0.3-10.1-0.1-15.1,0.6c-20,2.6-33,16.2-33.3,36.4c-0.5,28.7-0.5,57.4,0,86.1c0.3,19.3,12.4,32.4,31.4,35.4
		c8,1.2,16.1,0.6,24.2,0.8c19.8,0.3,39.7,0.1,59.5,0.1c8.5,0,17,0,25.4-0.5c9.7-0.6,17.9-4.6,24.4-11.8c6.6-7.3,9.5-16,9.5-25.7
		c0.1-28,0-56,0-84c0-16.9-9.3-30-25.3-35.5c-1.1-0.4-2.3-0.5-3.3-1.4c0.5-1,1.4-0.8,2.1-0.8c3.7-0.4,7.4-1,11-2.2
		c13-4.3,26-8.5,39-12.7c1.8-0.6,4.2-1.9,5.4-0.6c1,1.1-0.5,3.4-1.3,5c-5,10.5-6.8,21.6-6.7,33.1c0.1,9,0.4,17.9,0.3,26.9
		c0,17.6-0.2,35.2-0.3,52.8C518.6,358.6,518.4,359.6,519,360.8z M473.7,198.9c-4.7-2.1-8.8-3.9-13-5.7
		c-21.2-9.6-41.7-20.3-60.3-34.4c-0.9-0.7-2.7-1.2-2.2-2.4c0.5-1,2.2-0.4,3.3-0.1c8.1,2,16.3,4,24.4,6.1
		c27.6,6.9,55.2,13.8,82.8,20.7c2.5,0.6,5,1.1,7.6,0.2c10.8-3.5,21.6-7.1,32.3-10.6c1.5-0.5,1.4-1.1,0.8-2.3c-1.1-2.1-2-4.3-3-6.5
		c-6.4-14.7-17.6-23.6-33-27.4c-8.7-2.2-17.6-2.1-26.5-2.2c-18.1-0.3-36.3-0.2-54.5,0.3c-4.5,0.1-8.9,0.5-13.3,1.3
		c-17.2,3-32,10.8-44.8,22.6c-13.8,12.7-21.4,28.1-20.7,47.1c0.1,3.2,0.6,3.9,3.7,4.6c15.2,3.5,30.4,6.9,45.6,10.4
		c3,0.7,5.9,0.6,8.9-0.4c16.7-5.8,33.4-11.4,50.1-17.2C465.8,201.7,469.5,200.4,473.7,198.9z M92.6,133c1.8,2,3.7,3.4,5.8,4.5
		c5,2.6,9.9,5.1,14.9,7.7c31.7,16.3,63.4,32.6,95.2,48.9c3.9,2,7.9,4,12.2,5c43.3,10.9,86.6,21.9,130,32.4c1.4,0.3,3.4,1.7,4.4,0.1
		c0.9-1.5-0.9-2.9-1.9-4c-5.5-6.4-11.3-12.6-17.3-18.6c-1.4-1.5-3.2-2.4-5.2-2.7c-3.5-0.6-6.9-1.4-10.3-2.1
		c-23.1-4.9-46.1-9.8-69.4-13.6c-22-3.6-40.8-12.8-54.8-30.8c-6.1-7.8-12.8-15.2-19.2-22.7c-1.6-1.9-3.2-3.8-6.1-3.8
		c-2.6,0-5.3-0.2-7.9-0.3c-22.1-0.2-44.3-0.3-66.4-0.5C95.3,132.3,94.1,132.4,92.6,133z M754,377c-0.1-3.1-0.1-6.2-0.5-9.3
		c-3.2-26.1-15.5-46.5-37.9-60.6c-4.1-2.6-5.4-2.2-8.6,1.4c-1.2,1.3-0.8,1.9,0.5,2.7c4.1,2.6,7.9,5.4,11.6,8.5
		c17.8,15,26.5,34.3,26.7,57.4c0.1,11.7-3,22.7-8.4,33.1c-14,26.7-41.3,41.8-71,38.2c-25.7-3.1-44.9-16.4-56.4-39.6
		c-12.4-25-11.3-49.7,4.2-73.4c2.8-4.3,2.9-4.3-0.8-7.8c-2.4-2.3-2.6-2.3-4.5,0.4c-11.9,16.5-16.8,35-15,55.2
		c2,22.3,11.4,41,28.6,55.4c19.6,16.3,42.3,22.4,67.3,17.5C725.1,449.3,754.5,417.3,754,377z M174.6,448.2
		c-3.7,0.1-7.3-0.2-10.8-0.8c-17.3-3-31.2-11.9-42.6-25c-10.1-11.6-15.6-25.3-16-40.7c-0.6-22.7,7.4-42,25.3-56.3
		c21.5-17.2,45.5-21.6,71.6-11.4c4,1.6,7.7,4,11.5,5.9c2.9,1.4,5.8,1.6,8.6-0.4c2.3-1.6,2.3-2.2,0.1-3.8c-20.9-15.2-43.8-19-68.5-12
		c-32,9-54.5,36.1-56.5,68.8c-1.6,25.8,6.7,48,26.7,64.9c19.2,16.2,41.6,22.4,66.3,17.5c20-3.9,36.1-15,49.1-30.6
		c5.2-6.3,9.2-13.2,10.8-21.4c0.4-2-0.3-2.4-2-2.3c-4.5,0.1-7.9,2.5-9.8,7.5c-1,2.7-2.1,5.4-3.8,7.7
		C220,436.6,199.9,447.3,174.6,448.2z M169.4,379.6c0.5-1,1.5-1.1,2.4-1.4c35.4-14.1,71.3-27.1,106.9-40.8c6.6-2.5,13.3-5,19.9-7.6
		c1.9-0.7,3.6-1.8,3.7-4.2c0-8.2,0-16.3,0.1-24.5c0-1.4-0.6-1.6-1.8-1.3c-5.7,1.4-11.4,2.7-16.7,5.6c-21,11.5-42,22.8-63,34.2
		c-17.7,9.6-35.4,19.3-53.1,28.9c-3.4,1.8-5.6,4.3-6.5,8.2c-0.8,3.8,0.5,6.7,4.4,9.2c3.1,2,5.8,1.8,8.9-0.4c1.1-0.8,1.9-1.8,1.5-3.3
		c-0.4-1.3-1.6-1.6-2.9-1.8C171.8,380.3,170.5,380.6,169.4,379.6z M178.8,321.8c-4.7,0-9.4,0.5-14,1.5c-16.4,3.7-30,11.6-39.3,26
		c-3.8,5.9-6,12.5-6.3,19.6c0,1.2,0.1,2.1,1.6,2c6.1-0.5,12.3-0.2,18.4,0c4.2,0.2,5-0.5,6.6-4.4c2.8-6.8,7.3-12,13.9-15.2
		c5.6-2.7,11.2-5.6,17.1-7.6c5.6-1.8,9.7-5.3,12.9-10.2c1.6-2.5,3-5.1,4.7-7.5c1-1.6,0.6-2.2-1.1-2.5
		C188.5,322.5,183.7,321.9,178.8,321.8z M179.4,422.1c0-3,0-6.1,0-9.1c0-3.7,0-3.7-3.7-3.8c-15.2-0.4-25.6-7.7-30.9-21.9
		c-0.8-2.2-2.2-3.1-4.5-3.1c-6.6,0.1-13.1,0.1-19.7,0c-1.7,0-2.4,0.3-2,2.3c3.5,18.1,13.1,31.9,28.7,41.5c9.1,5.6,19,8.2,29.8,6.9
		c1.9-0.2,2.4-1,2.3-2.8C179.3,428.8,179.4,425.5,179.4,422.1z M664.2,325.6c0-1.2-0.5-2.6-1.1-4c-4.1-10.9-8.2-21.8-12.5-32.7
		c-2.6-6.7-5.5-13.3-8.3-19.9c-0.3-0.7-0.3-1.9-1.7-1.4c-4.2,1.6-7.3,7.4-6.2,11.8c0.3,1.2,0.7,2.3,1.1,3.4
		c5.5,14.2,11,28.4,16.6,42.7c0.7,1.8,1.6,3.5,3.2,4.7c1.9,1.4,3.9,1.4,5.9,0.4C663.1,329.6,664.2,328.1,664.2,325.6z M107.1,301.7
		c-2.2,0.2-3.8,1.7-5.3,3.2c-15.3,14.3-24.4,32-28.6,52.3c-0.6,2.7-1,5.3-1.4,8c-0.3,2.3,1.8,5,3.9,5.3c2.2,0.3,3.5-1,4-4.1
		c0.2-0.9,0.3-1.9,0.5-2.8c3.2-17.7,9.9-33.8,22.2-47.3c2.5-2.7,5.3-5.1,7.9-7.7c1.2-1.2,1.7-2.8,0.9-4.4
		C110.3,302.8,109,301.8,107.1,301.7z M193.5,421C193.5,421,193.4,421,193.5,421c-0.1,2.5-0.1,5-0.1,7.4c0,3.3,0.3,3.5,3.5,2.3
		c4.2-1.6,8.1-3.9,11.6-6.7c5.8-4.6,11-9.8,14.6-16.3c0.3-0.5,0.7-1,0.4-1.5c-0.3-0.6-1-0.3-1.5-0.3c-8.5,1.1-16.9,2.2-25.4,3.3
		c-1.9,0.3-3.1,1.3-3.1,3.3C193.5,415.4,193.5,418.2,193.5,421z M581.8,37.3c-0.8,0-1.1,0.5-1.5,0.9c-1,1.1-1.9,2.4-3,3.5
		c-1.1,1.1-0.9,1.7,0.4,2.6c14.6,10.2,29.1,20.4,43.6,30.5c0.6,0.4,1.3,1.4,2,0.4c0.7-0.9-0.5-1.4-1-1.9c-13-11.7-26.1-23.3-39.2-35
		C582.7,38,582.2,37.7,581.8,37.3z"/>
	<path class="st0" d="M95.2,620.2c0,1.4,0,2.2,0,3.1c0,16.4,0,32.8,0,49.2c0,3.2,0,3.2-3.1,3.2c-8.3,0-16.6-0.1-25,0
		c-2.2,0-2.9-0.7-2.9-2.9c0-39.4,0-78.7,0-118.1c0-2,0.6-2.9,2.7-2.8c5.4,0.1,10.9,0.2,16.3,0c3.6-0.2,5.9,1.4,7.7,4.2
		c5,7.5,10,14.9,15,22.3c7.3,10.8,14.6,21.6,21.8,32.5c1.1,1.7,1.7,1.8,2.9,0c12-18.6,24.3-37,36.9-55.2c1.8-2.5,3.9-3.8,7-3.7
		c5.3,0.1,10.6,0,15.8,0c3.2,0,3.2,0,3.2,3.2c0,32.1,0,64.1,0,96.2c0,7,0,13.9,0,20.9c0,3.2,0,3.3-3.1,3.3c-8.1,0-16.2,0-24.2,0
		c-3,0-3.1-0.1-3.1-3.1c0-16,0-32,0-48c0-0.6,0-1.3,0-1.9c0-0.5,0.1-1.1-0.4-1.3c-0.7-0.3-1,0.4-1.3,0.8c-2,2.6-3.9,5.3-5.8,7.9
		c-8.2,11.3-16.4,22.5-24.6,33.8c-1.8,2.5-1.8,2.5-3.6,0.1c-10.1-13.7-20.1-27.5-30.2-41.2C96.7,621.9,96.1,621.3,95.2,620.2z"/>
	<path class="st0" d="M575.6,680c-33,0.7-66.2-27.1-66.2-66.4c0-38,32.7-66.4,67.7-65.6c33.5,0.7,66.1,27.1,66.1,66.7
		C643.1,653.6,609.6,680.7,575.6,680z M609.5,614.4c0-19-14.3-33.3-33.5-33.3c-18.6,0-33,14.7-33,33.7c0,17.9,14.9,32.3,33.3,32.2
		C595.1,646.9,609.5,632.8,609.5,614.4z"/>
	<path class="st0" d="M355.8,614.5c0.7,33.1-26.8,65.6-65.6,65.7c-37.7,0.1-67.4-28.8-67.4-66.4c0-38.5,33.4-66,66.7-65.7
		C326.4,548.4,356.4,578.5,355.8,614.5z M322.4,614.6c0-18.7-14.5-33.6-32.6-33.5c-19.1,0.1-33.3,14.4-33.3,33.5
		c0,18.2,14.3,32.3,32.8,32.3C307.9,647,322.4,632.8,322.4,614.6z"/>
	<path class="st0" d="M724.3,549.1c20.4,0,38,7.5,53.4,20.5c2.4,2.1,2.4,2.2,0.6,4.9c-4.4,6.4-8.8,12.8-13.2,19.2
		c-1.1,1.6-1.9,1.7-3.4,0.5c-8.8-7-18.7-11.6-30-12.9c-7.4-0.8-14.7-0.1-21.9,1.8c-3.6,1-7.2,5.7-7.4,9.3c-0.1,2.1,1.3,3.3,2.9,4.4
		c3,2,6.5,2.1,9.9,2.7c12.1,2,24.2,3.4,36.2,5.8c11.5,2.4,20.9,7.9,26.3,18.8c7,14.1,3.4,31.2-8.5,41.7c-8.4,7.4-18.3,11-29.1,12.6
		c-16.1,2.4-31.7,1-46.9-5.1c-8.5-3.4-16.4-8-23.4-13.9c-1.5-1.2-1.6-2.2-0.4-3.8c4.1-5.4,8-11,12.1-16.5c2.2-3,4-3.3,7.1-1.4
		c8,4.9,16.5,8.5,25.8,9.9c8.2,1.2,16.4,1.9,24.4-0.8c1.7-0.6,3.4-1.4,5-2.3c2.2-1.3,3.7-3.1,3.4-5.8c-0.3-2.7-2.3-3.7-4.5-4.4
		c-5.4-1.7-11.1-2.5-16.6-3.5c-10.5-1.8-21-3.2-31.3-5.8c-14.2-3.5-24-14.3-25.3-27.8c-1.5-15.7,4.4-28.1,16.7-37.6
		c8.2-6.3,17.9-9,28-10.3C717.6,549.2,721,549,724.3,549.1z"/>
	<path class="st0" d="M432.4,552.1c17.1,0,34.2,0,51.3,0c3.5,0,3.6,0,3.6,3.6c0,8.1-0.1,16.2,0,24.2c0,2.3-0.8,3-3,3
		c-10.7-0.1-21.4,0-32.1,0c-4.3,0-4.3,0-4.3,4.2c0,28.4,0,56.8,0,85.2c0,3.7,0,3.7-3.7,3.7c-8.2,0-16.3,0-24.5,0
		c-3.1,0-3.2-0.1-3.2-3.3c0-28.6,0-57.3,0-85.9c0-3.4,0-3.4-3.4-3.4c-11,0-21.9-0.1-32.9,0c-2.5,0-3.1-0.8-3.1-3.2
		c0.1-8.2,0-16.5,0-24.7c0-3.5,0-3.5,3.4-3.5C397.9,552.1,415.2,552.1,432.4,552.1z"/>
	<path class="st0" d="M663,416.2c-0.8,2.9-1.5,5.3-2.1,7.7c-0.3,1.2-1,1.5-2.1,0.9c-4.4-2.3-8.7-4.6-13.1-6.9
		c-1.2-0.6-1.3-1.2-0.4-2.2c1.7-1.8,3.4-3.6,5.1-5.4c0.8-0.9,1.6-1.1,2.7-0.4c2.9,1.7,5.8,3.3,8.8,4.9
		C662.6,415.2,663.1,415.8,663,416.2z"/>
	<path class="st0" d="M638.2,411.8c-0.8-0.1-1.1-0.6-1.4-1.1c-2.2-3.3-4.3-6.7-6.5-10c-0.7-1.1-0.7-1.9,0.6-2.5
		c2.3-1.1,4.6-2.2,6.9-3.3c1.2-0.6,2.1-0.4,2.8,0.8c1,1.6,2.1,3.2,3.2,4.8c2.2,3.3,2.2,3.3-0.4,6.1c-1.3,1.4-2.6,2.8-4,4.1
		C639.1,411.2,638.6,411.5,638.2,411.8z"/>
	<path class="st0" d="M692,424.1c-1,0.1-1.2-0.5-1.4-1.1c-0.9-2.2-1.7-4.5-2.6-6.7c-0.5-1.2-0.1-2,1-2.6c2.5-1.4,4.9-2.9,7.4-4.4
		c0.9-0.6,1.7-0.6,2.5,0.3c1.8,1.9,3.6,3.9,5.4,5.8c1,1,0.9,1.7-0.4,2.4c-3.7,2-7.3,4-10.9,5.9C692.6,423.9,692.2,424,692,424.1z"/>
	<path class="st0" d="M676,426.8c-1.9,0-3.8,0-5.7,0c-1.5,0-2-0.6-1.8-2.1c0.3-2.4,0.7-4.9,1-7.3c0.1-1.2,0.8-1.7,1.9-1.7
		c2.7,0,5.4,0,8.1,0c1.2,0,1.9,0.6,2.2,1.7c0.7,2.5,1.3,4.9,2,7.4c0.4,1.4-0.1,1.9-1.5,1.9C680.2,426.8,678.1,426.8,676,426.8
		C676,426.8,676,426.8,676,426.8z"/>
	<path class="st0" d="M709.9,394.3c2.4,1.3,5.5,2.2,8,4.1c0.7,0.5,0.8,1.4,0.3,2.2c-1.9,3-3.7,6-5.6,8.9c-0.9,1.4-2,1.5-3.2,0.4
		c-0.1-0.1-0.1-0.1-0.2-0.1c-6.6-4.4-6.8-10-0.7-15.1C708.9,394.5,709.2,394.2,709.9,394.3z"/>
	<path class="st0" d="M687.9,326.6c0.3,0.1,0.8,0.3,1.2,0.5c3.9,1.9,7.8,3.9,11.8,5.8c1.3,0.6,1.7,1.2,0.6,2.5
		c-1.6,1.8-3.2,3.8-4.7,5.7c-0.8,1.1-1.7,1.1-2.9,0.7c-6.6-2.5-8.9-7.1-7.2-14.1C686.9,327.1,687.1,326.6,687.9,326.6z"/>
	<path class="st0" d="M629.6,377.7c0.2,0,0.3,0,0.5,0c1.7,0.2,4-0.9,5,0.7c1.4,2.3,1.8,5.1,1.4,7.9c-0.2,1.2-1,2.1-2.1,2.8
		c-2.1,1.3-4.3,2-6.6,2.9c-1.1,0.4-1.7,0-1.9-1.1c-0.8-3.8-1.5-7.7-2.3-11.5c-0.2-1.2,0.4-1.6,1.4-1.6
		C626.6,377.8,628.1,377.8,629.6,377.7C629.6,377.8,629.6,377.7,629.6,377.7z"/>
	<path class="st0" d="M714.4,371.5c-1,0.1-1.5-0.4-1.7-1.3c-0.6-2.2-1.3-4.4-2-6.7c-0.3-0.8-0.1-1.5,0.6-2.1
		c2.5-1.8,4.9-3.6,7.3-5.4c1-0.7,1.6-0.6,1.9,0.6c1.2,4,2.4,7.9,3.6,11.9c0.3,1-0.1,1.6-1.1,1.7
		C720.2,370.7,717.3,371.1,714.4,371.5z"/>
	<path class="st0" d="M718.9,377.3c6.8,0,5.8-0.4,4.8,5.8c-0.4,2.5-0.8,5-1.2,7.6c-0.2,1.3-0.8,1.6-2,1c-2.6-1.3-5.1-2.6-7.7-3.8
		c-1-0.5-1.4-1.2-1.1-2.3c0.2-0.9,0.3-1.9,0.5-2.8C713.7,376.5,712.4,377.4,718.9,377.3z"/>
	<path class="st0" d="M636.6,365.1c0,0.2,0,0.5,0,0.7c-0.4,5.6-0.9,6-6.3,5c-6.7-1.3-6.7-1.3-4.9-7.8c0.5-1.8,1-3.5,1.4-5.3
		c0.3-1.4,1-1.9,2.3-1.1c1.7,1.1,3.5,2.2,5.2,3.5C635.9,361.3,636.6,363.1,636.6,365.1z"/>
	<path class="st0" d="M708.6,339.1c0.3,0.3,0.7,0.5,0.9,0.8c2.1,2.4,4.1,4.9,6.2,7.3c0.8,0.9,0.8,1.6-0.2,2.4
		c-1.9,1.5-3.9,3.1-5.8,4.7c-0.9,0.8-1.6,0.7-2.5-0.2c-1.8-1.8-3.6-3.6-5.4-5.4c-0.6-0.6-1.1-1.2-0.4-2c2.1-2.3,4.1-4.7,6.2-7
		C707.9,339.4,708.3,339.3,708.6,339.1z"/>
	<path class="st0" d="M416.6,334.4c0-15.4,0-30.9,0-46.3c0-3.5,0-3.5,3.4-3.5c10.2,0,20.3-0.1,30.5,0c13.7,0.1,21.2,7.1,21.7,20.7
		c0.3,8.7,0.4,17.4,0.1,26.2c-0.3,11.2-8.9,19.3-20.5,19.6c-4.2,0.1-8.3,0.2-12.5,0c-2.3-0.1-3,0.6-3,2.9c0.1,9.2,0,18.4,0.1,27.6
		c0,2.3-0.8,3.1-3,3c-4.6-0.1-9.1,0-13.7,0c-2.9,0-3.1-0.2-3.2-3.1C416.6,365.8,416.6,350.1,416.6,334.4z M436.5,317.8
		c0,3.5,0,7,0,10.5c0,1.3,0.4,2,1.8,2c3.6,0,7.2,0,10.8-0.1c2-0.1,3.1-1.1,3.1-3.2c0-6.4,0-12.8,0.1-19.2c0-1.6-0.6-2.3-2.2-2.3
		c-3.7,0.1-7.5,0.1-11.3,0c-1.6,0-2.3,0.5-2.2,2.2C436.6,311.1,436.5,314.4,436.5,317.8z"/>
	<path class="st0" d="M350.4,335.3c0-9.8-0.2-19.5,0-29.3c0.3-12.9,8.9-21.3,21.8-21.4c9-0.1,18.1,0.1,27.1-0.1c2.3,0,3.1,0.7,3,3
		c-0.1,5-0.1,9.9,0,14.9c0,1.9-0.6,2.7-2.6,2.7c-6.4-0.1-12.8,0-19.2,0c-0.8,0-1.6,0-2.4,0c-6,0.4-7.9,2.5-8,8.5c0,14,0,28,0,42
		c0,5.8,1.8,7.6,7.6,7.7c7.4,0.1,14.7,0.1,22.1,0c2.2,0,3,0.7,2.9,2.9c-0.1,5,0.1,10.1-0.3,15.1c-0.2,2.2-1.4,3.3-3.3,3.4
		c-10.7,0.2-21.4,0.9-32.1-0.4c-10.1-1.2-16.6-9.1-16.7-19.3c-0.1-5,0-9.9-0.1-14.9C350.3,345.2,350.3,340.2,350.4,335.3
		C350.3,335.3,350.3,335.3,350.4,335.3z"/>
	<path class="st0" d="M695.9,212.4c-6.6-0.5-14.1-2.1-21.6-3.6c-0.3-0.1-0.6-0.2-0.9-0.2c-9.8-1.9-11.9-4.2-13.1-14.2
		c-1.1-9.4-2.3-18.7-3.5-28c-0.1-1.1-0.7-2.2,0.5-3.1c1.3-0.9,2.4-0.3,3.6,0.3c9.4,5.1,18.8,10.3,27.8,16c5.1,3.2,10.2,6.3,15.3,9.4
		c4.5,2.7,5.4,4.8,4.1,10c-0.6,2.3-0.9,4.7-1.8,7C704.5,211,702.3,212.5,695.9,212.4z"/>
	<path class="st0" d="M649.1,213.8c-11.2-0.6-23.1-0.2-35-0.7c-9.9-0.3-19.8,0-29.7-0.5c-9.7-0.5-19.5,0-29.2-0.5
		c-7.7-0.4-15.3-0.2-23-0.4c-0.2,0-0.5,0-0.7,0c-0.8-0.1-1.8,0-1.9-1.1c-0.1-1,0.9-1,1.5-1.2c3.4-0.9,6.8-1.7,10.2-2.6
		c7-1.7,13.8-4,21-4.8c7.7-0.9,15.5-1,23.2-0.4c7.2,0.5,14.5,1,21.7,1.6c15.9,1.2,31.7,2.8,47.1,6.7c1.1,0.3,2.2,0.6,3.2,1
		c0.8,0.3,1.6,0.6,1.5,1.6c-0.1,1.2-1.1,1-1.8,1C654.8,213.9,652.3,213.8,649.1,213.8z"/>
	<path class="st0" d="M556.2,245.1c0-7.7,6.5-14.3,14-14.2c7.2,0.1,14.1,7,14,14.1c-0.1,7.4-7.2,14.5-14.4,14.4
		C562.6,259.4,556.1,252.5,556.2,245.1z"/>
</g>
</svg>
